REM GoldWave
FILE "Зазнобин В.М. 2010 11 29   Европейский русский форум Европарламент, Брюссель.m4a" BINARY
  TRACK 01 AUDIO
    TITLE "00:00:00.00000"
    PERFORMER "Внутренний Предиктор СССР"
    INDEX 01 00:00:00
  TRACK 02 AUDIO
    TITLE "00:00:14.73669"
    PERFORMER "Внутренний Предиктор СССР"
    INDEX 01 00:14:55
  TRACK 03 AUDIO
    TITLE "00:00:29.04941"
    PERFORMER "Внутренний Предиктор СССР"
    INDEX 01 00:29:04
  TRACK 04 AUDIO
    TITLE "00:00:42.10172"
    PERFORMER "Внутренний Предиктор СССР"
    INDEX 01 00:42:08
  TRACK 05 AUDIO
    TITLE "00:00:56.35313"
    PERFORMER "Внутренний Предиктор СССР"
    INDEX 01 00:56:26
  TRACK 06 AUDIO
    TITLE "00:01:10.36816"
    PERFORMER "Внутренний Предиктор СССР"
    INDEX 01 01:10:28
  TRACK 07 AUDIO
    TITLE "00:01:24.17467"
    PERFORMER "Внутренний Предиктор СССР"
    INDEX 01 01:24:13
  TRACK 08 AUDIO
    TITLE "00:01:37.29109"
    PERFORMER "Внутренний Предиктор СССР"
    INDEX 01 01:37:22
  TRACK 09 AUDIO
    TITLE "00:01:53.07735"
    PERFORMER "Внутренний Предиктор СССР"
    INDEX 01 01:53:06
  TRACK 10 AUDIO
    TITLE "00:02:06.61868"
    PERFORMER "Внутренний Предиктор СССР"
    INDEX 01 02:06:46
  TRACK 11 AUDIO
    TITLE "00:02:20.89424"
    PERFORMER "Внутренний Предиктор СССР"
    INDEX 01 02:20:67
  TRACK 12 AUDIO
    TITLE "00:02:44.51721"
    PERFORMER "Внутренний Предиктор СССР"
    INDEX 01 02:44:39
  TRACK 13 AUDIO
    TITLE "00:02:57.56769"
    PERFORMER "Внутренний Предиктор СССР"
    INDEX 01 02:57:43
  TRACK 14 AUDIO
    TITLE "00:03:10.89912"
    PERFORMER "Внутренний Предиктор СССР"
    INDEX 01 03:10:67
  TRACK 15 AUDIO
    TITLE "00:03:25.56197"
    PERFORMER "Внутренний Предиктор СССР"
    INDEX 01 03:25:42
  TRACK 16 AUDIO
    TITLE "00:03:39.88397"
    PERFORMER "Внутренний Предиктор СССР"
    INDEX 01 03:39:66
  TRACK 17 AUDIO
    TITLE "00:03:54.68569"
    PERFORMER "Внутренний Предиктор СССР"
    INDEX 01 03:54:51
  TRACK 18 AUDIO
    TITLE "00:04:09.64717"
    PERFORMER "Внутренний Предиктор СССР"
    INDEX 01 04:09:49
  TRACK 19 AUDIO
    TITLE "00:04:23.21451"
    PERFORMER "Внутренний Предиктор СССР"
    INDEX 01 04:23:16
  TRACK 20 AUDIO
    TITLE "00:04:38.29302"
    PERFORMER "Внутренний Предиктор СССР"
    INDEX 01 04:38:22
  TRACK 21 AUDIO
    TITLE "00:04:52.59923"
    PERFORMER "Внутренний Предиктор СССР"
    INDEX 01 04:52:45
  TRACK 22 AUDIO
    TITLE "00:05:06.52091"
    PERFORMER "Внутренний Предиктор СССР"
    INDEX 01 05:06:39
  TRACK 23 AUDIO
    TITLE "00:05:19.50497"
    PERFORMER "Внутренний Предиктор СССР"
    INDEX 01 05:19:38
  TRACK 24 AUDIO
    TITLE "00:05:35.47048"
    PERFORMER "Внутренний Предиктор СССР"
    INDEX 01 05:35:35
  TRACK 25 AUDIO
    TITLE "00:05:49.66615"
    PERFORMER "Внутренний Предиктор СССР"
    INDEX 01 05:49:50
  TRACK 26 AUDIO
    TITLE "00:06:03.10347"
    PERFORMER "Внутренний Предиктор СССР"
    INDEX 01 06:03:08
  TRACK 27 AUDIO
    TITLE "00:06:17.60100"
    PERFORMER "Внутренний Предиктор СССР"
    INDEX 01 06:17:45
  TRACK 28 AUDIO
    TITLE "00:06:32.60195"
    PERFORMER "Внутренний Предиктор СССР"
    INDEX 01 06:32:45
  TRACK 29 AUDIO
    TITLE "00:06:45.91016"
    PERFORMER "Внутренний Предиктор СССР"
    INDEX 01 06:45:68
  TRACK 30 AUDIO
    TITLE "00:07:01.97272"
    PERFORMER "Внутренний Предиктор СССР"
    INDEX 01 07:01:73
  TRACK 31 AUDIO
    TITLE "00:07:17.13760"
    PERFORMER "Внутренний Предиктор СССР"
    INDEX 01 07:17:10
  TRACK 32 AUDIO
    TITLE "00:07:32.00388"
    PERFORMER "Внутренний Предиктор СССР"
    INDEX 01 07:32:00
  TRACK 33 AUDIO
    TITLE "00:07:49.82372"
    PERFORMER "Внутренний Предиктор СССР"
    INDEX 01 07:49:62
  TRACK 34 AUDIO
    TITLE "00:08:04.41832"
    PERFORMER "Внутренний Предиктор СССР"
    INDEX 01 08:04:31
  TRACK 35 AUDIO
    TITLE "00:08:18.21136"
    PERFORMER "Внутренний Предиктор СССР"
    INDEX 01 08:18:16
  TRACK 36 AUDIO
    TITLE "00:08:36.35909"
    PERFORMER "Внутренний Предиктор СССР"
    INDEX 01 08:36:27
  TRACK 37 AUDIO
    TITLE "00:08:51.07304"
    PERFORMER "Внутренний Предиктор СССР"
    INDEX 01 08:51:05
  TRACK 38 AUDIO
    TITLE "00:09:06.97678"
    PERFORMER "Внутренний Предиктор СССР"
    INDEX 01 09:06:73
  TRACK 39 AUDIO
    TITLE "00:09:22.08685"
    PERFORMER "Внутренний Предиктор СССР"
    INDEX 01 09:22:07
  TRACK 40 AUDIO
    TITLE "00:09:35.05327"
    PERFORMER "Внутренний Предиктор СССР"
    INDEX 01 09:35:04
  TRACK 41 AUDIO
    TITLE "00:09:49.06596"
    PERFORMER "Внутренний Предиктор СССР"
    INDEX 01 09:49:05
  TRACK 42 AUDIO
    TITLE "00:10:02.72898"
    PERFORMER "Внутренний Предиктор СССР"
    INDEX 01 10:02:55
  TRACK 43 AUDIO
    TITLE "00:10:16.19277"
    PERFORMER "Внутренний Предиктор СССР"
    INDEX 01 10:16:14
  TRACK 44 AUDIO
    TITLE "00:10:32.18429"
    PERFORMER "Внутренний Предиктор СССР"
    INDEX 01 10:32:14
  TRACK 45 AUDIO
    TITLE "00:10:46.39855"
    PERFORMER "Внутренний Предиктор СССР"
    INDEX 01 10:46:30
  TRACK 46 AUDIO
    TITLE "00:11:00.98107"
    PERFORMER "Внутренний Предиктор СССР"
    INDEX 01 11:00:74
  TRACK 47 AUDIO
    TITLE "00:11:14.09098"
    PERFORMER "Внутренний Предиктор СССР"
    INDEX 01 11:14:07
  TRACK 48 AUDIO
    TITLE "00:11:28.39161"
    PERFORMER "Внутренний Предиктор СССР"
    INDEX 01 11:28:29
  TRACK 49 AUDIO
    TITLE "00:11:44.29488"
    PERFORMER "Внутренний Предиктор СССР"
    INDEX 01 11:44:22
  TRACK 50 AUDIO
    TITLE "00:11:58.97912"
    PERFORMER "Внутренний Предиктор СССР"
    INDEX 01 11:58:73
  TRACK 51 AUDIO
    TITLE "00:12:15.86506"
    PERFORMER "Внутренний Предиктор СССР"
    INDEX 01 12:15:65
  TRACK 52 AUDIO
    TITLE "00:12:31.33782"
    PERFORMER "Внутренний Предиктор СССР"
    INDEX 01 12:31:25
  TRACK 53 AUDIO
    TITLE "00:12:49.83989"
    PERFORMER "Внутренний Предиктор СССР"
    INDEX 01 12:49:63
  TRACK 54 AUDIO
    TITLE "00:13:04.38712"
    PERFORMER "Внутренний Предиктор СССР"
    INDEX 01 13:04:29
  TRACK 55 AUDIO
    TITLE "00:13:20.36098"
    PERFORMER "Внутренний Предиктор СССР"
    INDEX 01 13:20:27
  TRACK 56 AUDIO
    TITLE "00:13:36.06780"
    PERFORMER "Внутренний Предиктор СССР"
    INDEX 01 13:36:05
  TRACK 57 AUDIO
    TITLE "00:13:49.48050"
    PERFORMER "Внутренний Предиктор СССР"
    INDEX 01 13:49:36
  TRACK 58 AUDIO
    TITLE "00:14:03.24290"
    PERFORMER "Внутренний Предиктор СССР"
    INDEX 01 14:03:18
  TRACK 59 AUDIO
    TITLE "00:14:16.94168"
    PERFORMER "Внутренний Предиктор СССР"
    INDEX 01 14:16:71
  TRACK 60 AUDIO
    TITLE "00:14:36.77190"
    PERFORMER "Внутренний Предиктор СССР"
    INDEX 01 14:36:58
  TRACK 61 AUDIO
    TITLE "00:14:51.62517"
    PERFORMER "Внутренний Предиктор СССР"
    INDEX 01 14:51:47
  TRACK 62 AUDIO
    TITLE "00:15:05.63973"
    PERFORMER "Внутренний Предиктор СССР"
    INDEX 01 15:05:48
  TRACK 63 AUDIO
    TITLE "00:15:18.88433"
    PERFORMER "Внутренний Предиктор СССР"
    INDEX 01 15:18:66
  TRACK 64 AUDIO
    TITLE "00:15:37.07197"
    PERFORMER "Внутренний Предиктор СССР"
    INDEX 01 15:37:05
  TRACK 65 AUDIO
    TITLE "00:15:53.96397"
    PERFORMER "Внутренний Предиктор СССР"
    INDEX 01 15:53:72
  TRACK 66 AUDIO
    TITLE "00:16:13.71896"
    PERFORMER "Внутренний Предиктор СССР"
    INDEX 01 16:13:54
  TRACK 67 AUDIO
    TITLE "00:16:30.32766"
    PERFORMER "Внутренний Предиктор СССР"
    INDEX 01 16:30:25
  TRACK 68 AUDIO
    TITLE "00:16:44.24052"
    PERFORMER "Внутренний Предиктор СССР"
    INDEX 01 16:44:18
  TRACK 69 AUDIO
    TITLE "00:17:03.32399"
    PERFORMER "Внутренний Предиктор СССР"
    INDEX 01 17:03:24
  TRACK 70 AUDIO
    TITLE "00:17:24.89247"
    PERFORMER "Внутренний Предиктор СССР"
    INDEX 01 17:24:67
  TRACK 71 AUDIO
    TITLE "00:17:38.93583"
    PERFORMER "Внутренний Предиктор СССР"
    INDEX 01 17:38:70
  TRACK 72 AUDIO
    TITLE "00:17:55.40753"
    PERFORMER "Внутренний Предиктор СССР"
    INDEX 01 17:55:31
  TRACK 73 AUDIO
    TITLE "00:18:11.19145"
    PERFORMER "Внутренний Предиктор СССР"
    INDEX 01 18:11:14
  TRACK 74 AUDIO
    TITLE "00:18:28.75077"
    PERFORMER "Внутренний Предиктор СССР"
    INDEX 01 18:28:56
  TRACK 75 AUDIO
    TITLE "00:18:43.17447"
    PERFORMER "Внутренний Предиктор СССР"
    INDEX 01 18:43:13
  TRACK 76 AUDIO
    TITLE "00:19:00.45190"
    PERFORMER "Внутренний Предиктор СССР"
    INDEX 01 19:00:34
  TRACK 77 AUDIO
    TITLE "00:19:13.83070"
    PERFORMER "Внутренний Предиктор СССР"
    INDEX 01 19:13:62
  TRACK 78 AUDIO
    TITLE "00:19:26.90998"
    PERFORMER "Внутренний Предиктор СССР"
    INDEX 01 19:26:68
  TRACK 79 AUDIO
    TITLE "00:19:41.05735"
    PERFORMER "Внутренний Предиктор СССР"
    INDEX 01 19:41:04
  TRACK 80 AUDIO
    TITLE "00:19:54.54342"
    PERFORMER "Внутренний Предиктор СССР"
    INDEX 01 19:54:41
  TRACK 81 AUDIO
    TITLE "00:20:08.53152"
    PERFORMER "Внутренний Предиктор СССР"
    INDEX 01 20:08:40
  TRACK 82 AUDIO
    TITLE "00:20:27.45571"
    PERFORMER "Внутренний Предиктор СССР"
    INDEX 01 20:27:34
  TRACK 83 AUDIO
    TITLE "00:20:41.52322"
    PERFORMER "Внутренний Предиктор СССР"
    INDEX 01 20:41:39
  TRACK 84 AUDIO
    TITLE "00:20:54.95821"
    PERFORMER "Внутренний Предиктор СССР"
    INDEX 01 20:54:72
  TRACK 85 AUDIO
    TITLE "00:21:08.19676"
    PERFORMER "Внутренний Предиктор СССР"
    INDEX 01 21:08:15
  TRACK 86 AUDIO
    TITLE "00:21:21.43950"
    PERFORMER "Внутренний Предиктор СССР"
    INDEX 01 21:21:33
  TRACK 87 AUDIO
    TITLE "00:21:39.17390"
    PERFORMER "Внутренний Предиктор СССР"
    INDEX 01 21:39:13
  TRACK 88 AUDIO
    TITLE "00:21:53.85626"
    PERFORMER "Внутренний Предиктор СССР"
    INDEX 01 21:53:64
  TRACK 89 AUDIO
    TITLE "00:22:07.64560"
    PERFORMER "Внутренний Предиктор СССР"
    INDEX 01 22:07:48
  TRACK 90 AUDIO
    TITLE "00:22:23.20474"
    PERFORMER "Внутренний Предиктор СССР"
    INDEX 01 22:23:15
  TRACK 91 AUDIO
    TITLE "00:22:40.50075"
    PERFORMER "Внутренний Предиктор СССР"
    INDEX 01 22:40:38
  TRACK 92 AUDIO
    TITLE "00:22:55.74272"
    PERFORMER "Внутренний Предиктор СССР"
    INDEX 01 22:55:56
  TRACK 93 AUDIO
    TITLE "00:23:09.60172"
    PERFORMER "Внутренний Предиктор СССР"
    INDEX 01 23:09:45
  TRACK 94 AUDIO
    TITLE "00:23:24.62728"
    PERFORMER "Внутренний Предиктор СССР"
    INDEX 01 23:24:47
  TRACK 95 AUDIO
    TITLE "00:23:40.59882"
    PERFORMER "Внутренний Предиктор СССР"
    INDEX 01 23:40:45
  TRACK 96 AUDIO
    TITLE "00:23:54.00270"
    PERFORMER "Внутренний Предиктор СССР"
    INDEX 01 23:54:00
  TRACK 97 AUDIO
    TITLE "00:24:08.19420"
    PERFORMER "Внутренний Предиктор СССР"
    INDEX 01 24:08:15
  TRACK 98 AUDIO
    TITLE "00:24:26.43293"
    PERFORMER "Внутренний Предиктор СССР"
    INDEX 01 24:26:32
  TRACK 99 AUDIO
    TITLE "00:24:41.44270"
    PERFORMER "Внутренний Предиктор СССР"
    INDEX 01 24:41:33
  TRACK 100 AUDIO
    TITLE "00:24:58.57338"
    PERFORMER "Внутренний Предиктор СССР"
    INDEX 01 24:58:43
  TRACK 101 AUDIO
    TITLE "00:25:12.41937"
    PERFORMER "Внутренний Предиктор СССР"
    INDEX 01 25:12:31
  TRACK 102 AUDIO
    TITLE "00:25:26.98286"
    PERFORMER "Внутренний Предиктор СССР"
    INDEX 01 25:26:74
  TRACK 103 AUDIO
    TITLE "00:25:46.17408"
    PERFORMER "Внутренний Предиктор СССР"
    INDEX 01 25:46:13
  TRACK 104 AUDIO
    TITLE "00:25:59.41029"
    PERFORMER "Внутренний Предиктор СССР"
    INDEX 01 25:59:31
  TRACK 105 AUDIO
    TITLE "00:26:15.08138"
    PERFORMER "Внутренний Предиктор СССР"
    INDEX 01 26:15:06
  TRACK 106 AUDIO
    TITLE "00:26:35.26780"
    PERFORMER "Внутренний Предиктор СССР"
    INDEX 01 26:35:20
  TRACK 107 AUDIO
    TITLE "00:26:48.34707"
    PERFORMER "Внутренний Предиктор СССР"
    INDEX 01 26:48:26
  TRACK 108 AUDIO
    TITLE "00:27:01.68268"
    PERFORMER "Внутренний Предиктор СССР"
    INDEX 01 27:01:51
  TRACK 109 AUDIO
    TITLE "00:27:17.05794"
    PERFORMER "Внутренний Предиктор СССР"
    INDEX 01 27:17:04
  TRACK 110 AUDIO
    TITLE "00:27:31.45469"
    PERFORMER "Внутренний Предиктор СССР"
    INDEX 01 27:31:34
  TRACK 111 AUDIO
    TITLE "00:27:55.81005"
    PERFORMER "Внутренний Предиктор СССР"
    INDEX 01 27:55:61
  TRACK 112 AUDIO
    TITLE "00:28:12.30449"
    PERFORMER "Внутренний Предиктор СССР"
    INDEX 01 28:12:23
  TRACK 113 AUDIO
    TITLE "00:28:26.74723"
    PERFORMER "Внутренний Предиктор СССР"
    INDEX 01 28:26:56
  TRACK 114 AUDIO
    TITLE "00:28:39.95002"
    PERFORMER "Внутренний Предиктор СССР"
    INDEX 01 28:39:71
  TRACK 115 AUDIO
    TITLE "00:28:54.41179"
    PERFORMER "Внутренний Предиктор СССР"
    INDEX 01 28:54:31
  TRACK 116 AUDIO
    TITLE "00:29:08.73565"
    PERFORMER "Внутренний Предиктор СССР"
    INDEX 01 29:08:55
  TRACK 117 AUDIO
    TITLE "00:29:21.91431"
    PERFORMER "Внутренний Предиктор СССР"
    INDEX 01 29:21:69
  TRACK 118 AUDIO
    TITLE "00:29:39.93617"
    PERFORMER "Внутренний Предиктор СССР"
    INDEX 01 29:39:70
  TRACK 119 AUDIO
    TITLE "00:29:54.45925"
    PERFORMER "Внутренний Предиктор СССР"
    INDEX 01 29:54:34
  TRACK 120 AUDIO
    TITLE "00:30:07.69546"
    PERFORMER "Внутренний Предиктор СССР"
    INDEX 01 30:07:52
  TRACK 121 AUDIO
    TITLE "00:30:26.85512"
    PERFORMER "Внутренний Предиктор СССР"
    INDEX 01 30:26:64
  TRACK 122 AUDIO
    TITLE "00:30:42.77324"
    PERFORMER "Внутренний Предиктор СССР"
    INDEX 01 30:42:58
  TRACK 123 AUDIO
    TITLE "00:30:59.14741"
    PERFORMER "Внутренний Предиктор СССР"
    INDEX 01 30:59:11
  TRACK 124 AUDIO
    TITLE "00:31:14.35317"
    PERFORMER "Внутренний Предиктор СССР"
    INDEX 01 31:14:26
  TRACK 125 AUDIO
    TITLE "00:31:28.81308"
    PERFORMER "Внутренний Предиктор СССР"
    INDEX 01 31:28:61
  TRACK 126 AUDIO
    TITLE "00:31:42.65907"
    PERFORMER "Внутренний Предиктор СССР"
    INDEX 01 31:42:49
  TRACK 127 AUDIO
    TITLE "00:31:55.72023"
    PERFORMER "Внутренний Предиктор СССР"
    INDEX 01 31:55:54
  TRACK 128 AUDIO
    TITLE "00:32:13.01671"
    PERFORMER "Внутренний Предиктор СССР"
    INDEX 01 32:13:01
  TRACK 129 AUDIO
    TITLE "00:32:26.67739"
    PERFORMER "Внутренний Предиктор СССР"
    INDEX 01 32:26:51
  TRACK 130 AUDIO
    TITLE "00:32:40.32741"
    PERFORMER "Внутренний Предиктор СССР"
    INDEX 01 32:40:25
  TRACK 131 AUDIO
    TITLE "00:32:57.19014"
    PERFORMER "Внутренний Предиктор СССР"
    INDEX 01 32:57:14
  TRACK 132 AUDIO
    TITLE "00:33:11.02776"
    PERFORMER "Внутренний Предиктор СССР"
    INDEX 01 33:11:02
  TRACK 133 AUDIO
    TITLE "00:33:30.48739"
    PERFORMER "Внутренний Предиктор СССР"
    INDEX 01 33:30:37
  TRACK 134 AUDIO
    TITLE "00:33:49.62615"
    PERFORMER "Внутренний Предиктор СССР"
    INDEX 01 33:49:47
  TRACK 135 AUDIO
    TITLE "00:34:03.59147"
    PERFORMER "Внутренний Предиктор СССР"
    INDEX 01 34:03:44
  TRACK 136 AUDIO
    TITLE "00:34:16.93823"
    PERFORMER "Внутренний Предиктор СССР"
    INDEX 01 34:16:70
  TRACK 137 AUDIO
    TITLE "00:34:32.01209"
    PERFORMER "Внутренний Предиктор СССР"
    INDEX 01 34:32:01
  TRACK 138 AUDIO
    TITLE "00:34:45.98023"
    PERFORMER "Внутренний Предиктор СССР"
    INDEX 01 34:45:74
  TRACK 139 AUDIO
    TITLE "00:35:00.35748"
    PERFORMER "Внутренний Предиктор СССР"
    INDEX 01 35:00:27
  TRACK 140 AUDIO
    TITLE "00:35:15.04866"
    PERFORMER "Внутренний Предиктор СССР"
    INDEX 01 35:15:04
  TRACK 141 AUDIO
    TITLE "00:35:29.29404"
    PERFORMER "Внутренний Предиктор СССР"
    INDEX 01 35:29:22
  TRACK 142 AUDIO
    TITLE "00:35:43.47206"
    PERFORMER "Внутренний Предиктор СССР"
    INDEX 01 35:43:35
  TRACK 143 AUDIO
    TITLE "00:35:58.42379"
    PERFORMER "Внутренний Предиктор СССР"
    INDEX 01 35:58:32
  TRACK 144 AUDIO
    TITLE "00:36:17.39859"
    PERFORMER "Внутренний Предиктор СССР"
    INDEX 01 36:17:30
  TRACK 145 AUDIO
    TITLE "00:36:37.70252"
    PERFORMER "Внутренний Предиктор СССР"
    INDEX 01 36:37:53
  TRACK 146 AUDIO
    TITLE "00:36:51.09154"
    PERFORMER "Внутренний Предиктор СССР"
    INDEX 01 36:51:07
  TRACK 147 AUDIO
    TITLE "00:37:14.75909"
    PERFORMER "Внутренний Предиктор СССР"
    INDEX 01 37:14:57
  TRACK 148 AUDIO
    TITLE "00:37:33.90202"
    PERFORMER "Внутренний Предиктор СССР"
    INDEX 01 37:33:68
  TRACK 149 AUDIO
    TITLE "00:37:48.35220"
    PERFORMER "Внутренний Предиктор СССР"
    INDEX 01 37:48:26
  TRACK 150 AUDIO
    TITLE "00:38:03.75531"
    PERFORMER "Внутренний Предиктор СССР"
    INDEX 01 38:03:57
  TRACK 151 AUDIO
    TITLE "00:38:20.24698"
    PERFORMER "Внутренний Предиктор СССР"
    INDEX 01 38:20:19
  TRACK 152 AUDIO
    TITLE "00:38:40.82721"
    PERFORMER "Внутренний Предиктор СССР"
    INDEX 01 38:40:62
  TRACK 153 AUDIO
    TITLE "00:38:54.05880"
    PERFORMER "Внутренний Предиктор СССР"
    INDEX 01 38:54:04
  TRACK 154 AUDIO
    TITLE "00:39:07.14689"
    PERFORMER "Внутренний Предиктор СССР"
    INDEX 01 39:07:11
  TRACK 155 AUDIO
    TITLE "00:39:22.23422"
    PERFORMER "Внутренний Предиктор СССР"
    INDEX 01 39:22:18
  TRACK 156 AUDIO
    TITLE "00:39:35.78206"
    PERFORMER "Внутренний Предиктор СССР"
    INDEX 01 39:35:59
  TRACK 157 AUDIO
    TITLE "00:39:51.18982"
    PERFORMER "Внутренний Предиктор СССР"
    INDEX 01 39:51:14
  TRACK 158 AUDIO
    TITLE "00:40:05.58054"
    PERFORMER "Внутренний Предиктор СССР"
    INDEX 01 40:05:44
  TRACK 159 AUDIO
    TITLE "00:40:21.89481"
    PERFORMER "Внутренний Предиктор СССР"
    INDEX 01 40:21:67
  TRACK 160 AUDIO
    TITLE "00:40:38.12317"
    PERFORMER "Внутренний Предиктор СССР"
    INDEX 01 40:38:09
  TRACK 161 AUDIO
    TITLE "00:40:51.78385"
    PERFORMER "Внутренний Предиктор СССР"
    INDEX 01 40:51:59
  TRACK 162 AUDIO
    TITLE "00:41:04.91605"
    PERFORMER "Внутренний Предиктор СССР"
    INDEX 01 41:04:69
  TRACK 163 AUDIO
    TITLE "00:41:21.10261"
    PERFORMER "Внутренний Предиктор СССР"
    INDEX 01 41:21:08
  TRACK 164 AUDIO
    TITLE "00:41:47.84868"
    PERFORMER "Внутренний Предиктор СССР"
    INDEX 01 41:47:64
  TRACK 165 AUDIO
    TITLE "00:42:01.19265"
    PERFORMER "Внутренний Предиктор СССР"
    INDEX 01 42:01:14
  TRACK 166 AUDIO
    TITLE "00:42:15.66093"
    PERFORMER "Внутренний Предиктор СССР"
    INDEX 01 42:15:50
  TRACK 167 AUDIO
    TITLE "00:42:30.76544"
    PERFORMER "Внутренний Предиктор СССР"
    INDEX 01 42:30:57
  TRACK 168 AUDIO
    TITLE "00:42:58.09293"
    PERFORMER "Внутренний Предиктор СССР"
    INDEX 01 42:58:07
  TRACK 169 AUDIO
    TITLE "00:43:17.50150"
    PERFORMER "Внутренний Предиктор СССР"
    INDEX 01 43:17:38
  TRACK 170 AUDIO
    TITLE "00:43:38.00465"
    PERFORMER "Внутренний Предиктор СССР"
    INDEX 01 43:38:00
  TRACK 171 AUDIO
    TITLE "00:44:10.00630"
    PERFORMER "Внутренний Предиктор СССР"
    INDEX 01 44:10:00
  TRACK 172 AUDIO
    TITLE "00:44:26.17707"
    PERFORMER "Внутренний Предиктор СССР"
    INDEX 01 44:26:13
  TRACK 173 AUDIO
    TITLE "00:44:42.86751"
    PERFORMER "Внутренний Предиктор СССР"
    INDEX 01 44:42:65
  TRACK 174 AUDIO
    TITLE "00:45:02.25841"
    PERFORMER "Внутренний Предиктор СССР"
    INDEX 01 45:02:19
  TRACK 175 AUDIO
    TITLE "00:45:17.52222"
    PERFORMER "Внутренний Предиктор СССР"
    INDEX 01 45:17:39
  TRACK 176 AUDIO
    TITLE "00:45:31.20288"
    PERFORMER "Внутренний Предиктор СССР"
    INDEX 01 45:31:15
  TRACK 177 AUDIO
    TITLE "00:45:45.60474"
    PERFORMER "Внутренний Предиктор СССР"
    INDEX 01 45:45:45
  TRACK 178 AUDIO
    TITLE "00:46:06.04336"
    PERFORMER "Внутренний Предиктор СССР"
    INDEX 01 46:06:03
  TRACK 179 AUDIO
    TITLE "00:46:20.49351"
    PERFORMER "Внутренний Предиктор СССР"
    INDEX 01 46:20:37
  TRACK 180 AUDIO
    TITLE "00:46:34.76256"
    PERFORMER "Внутренний Предиктор СССР"
    INDEX 01 46:34:57
  TRACK 181 AUDIO
    TITLE "00:46:51.02018"
    PERFORMER "Внутренний Предиктор СССР"
    INDEX 01 46:51:02
  TRACK 182 AUDIO
    TITLE "00:47:04.56755"
    PERFORMER "Внутренний Предиктор СССР"
    INDEX 01 47:04:43
  TRACK 183 AUDIO
    TITLE "00:47:22.27966"
    PERFORMER "Внутренний Предиктор СССР"
    INDEX 01 47:22:21
  TRACK 184 AUDIO
    TITLE "00:47:39.02304"
    PERFORMER "Внутренний Предиктор СССР"
    INDEX 01 47:39:02
  TRACK 185 AUDIO
    TITLE "00:47:56.52059"
    PERFORMER "Внутренний Предиктор СССР"
    INDEX 01 47:56:39
  TRACK 186 AUDIO
    TITLE "00:48:10.38934"
    PERFORMER "Внутренний Предиктор СССР"
    INDEX 01 48:10:29
  TRACK 187 AUDIO
    TITLE "00:48:23.88007"
    PERFORMER "Внутренний Предиктор СССР"
    INDEX 01 48:23:66
  TRACK 188 AUDIO
    TITLE "00:48:37.76830"
    PERFORMER "Внутренний Предиктор СССР"
    INDEX 01 48:37:58
  TRACK 189 AUDIO
    TITLE "00:48:51.89571"
    PERFORMER "Внутренний Предиктор СССР"
    INDEX 01 48:51:67
  TRACK 190 AUDIO
    TITLE "00:49:09.15921"
    PERFORMER "Внутренний Предиктор СССР"
    INDEX 01 49:09:12
  TRACK 191 AUDIO
    TITLE "00:49:27.19363"
    PERFORMER "Внутренний Предиктор СССР"
    INDEX 01 49:27:15
  TRACK 192 AUDIO
    TITLE "00:49:48.35574"
    PERFORMER "Внутренний Предиктор СССР"
    INDEX 01 49:48:27
  TRACK 193 AUDIO
    TITLE "00:50:03.48302"
    PERFORMER "Внутренний Предиктор СССР"
    INDEX 01 50:03:36
  TRACK 194 AUDIO
    TITLE "00:50:20.65549"
    PERFORMER "Внутренний Предиктор СССР"
    INDEX 01 50:20:49
  TRACK 195 AUDIO
    TITLE "00:50:39.40739"
    PERFORMER "Внутренний Предиктор СССР"
    INDEX 01 50:39:31
  TRACK 196 AUDIO
    TITLE "00:50:56.25803"
    PERFORMER "Внутренний Предиктор СССР"
    INDEX 01 50:56:19
  TRACK 197 AUDIO
    TITLE "00:51:15.20313"
    PERFORMER "Внутренний Предиктор СССР"
    INDEX 01 51:15:15
  TRACK 198 AUDIO
    TITLE "00:51:35.13832"
    PERFORMER "Внутренний Предиктор СССР"
    INDEX 01 51:35:10
  TRACK 199 AUDIO
    TITLE "00:51:53.61900"
    PERFORMER "Внутренний Предиктор СССР"
    INDEX 01 51:53:46
  TRACK 200 AUDIO
    TITLE "00:52:09.74658"
    PERFORMER "Внутренний Предиктор СССР"
    INDEX 01 52:09:56
  TRACK 201 AUDIO
    TITLE "00:52:28.31179"
    PERFORMER "Внутренний Предиктор СССР"
    INDEX 01 52:28:23
  TRACK 202 AUDIO
    TITLE "00:52:48.12066"
    PERFORMER "Внутренний Предиктор СССР"
    INDEX 01 52:48:09
  TRACK 203 AUDIO
    TITLE "00:53:31.57209"
    PERFORMER "Внутренний Предиктор СССР"
    INDEX 01 53:31:43
  TRACK 204 AUDIO
    TITLE "00:53:51.38560"
    PERFORMER "Внутренний Предиктор СССР"
    INDEX 01 53:51:29
  TRACK 205 AUDIO
    TITLE "00:54:06.63082"
    PERFORMER "Внутренний Предиктор СССР"
    INDEX 01 54:06:47
  TRACK 206 AUDIO
    TITLE "00:54:21.47619"
    PERFORMER "Внутренний Предиктор СССР"
    INDEX 01 54:21:36
  TRACK 207 AUDIO
    TITLE "00:54:37.36739"
    PERFORMER "Внутренний Предиктор СССР"
    INDEX 01 54:37:28
  TRACK 208 AUDIO
    TITLE "00:54:54.75721"
    PERFORMER "Внутренний Предиктор СССР"
    INDEX 01 54:54:57
  TRACK 209 AUDIO
    TITLE "00:55:20.23825"
    PERFORMER "Внутренний Предиктор СССР"
    INDEX 01 55:20:18
  TRACK 210 AUDIO
    TITLE "00:55:37.89603"
    PERFORMER "Внутренний Предиктор СССР"
    INDEX 01 55:37:67
  TRACK 211 AUDIO
    TITLE "00:55:52.27050"
    PERFORMER "Внутренний Предиктор СССР"
    INDEX 01 55:52:20
  TRACK 212 AUDIO
    TITLE "00:56:07.98662"
    PERFORMER "Внутренний Предиктор СССР"
    INDEX 01 56:07:74
  TRACK 213 AUDIO
    TITLE "00:56:21.51542"
    PERFORMER "Внутренний Предиктор СССР"
    INDEX 01 56:21:39
  TRACK 214 AUDIO
    TITLE "00:56:41.89224"
    PERFORMER "Внутренний Предиктор СССР"
    INDEX 01 56:41:67
  TRACK 215 AUDIO
    TITLE "00:56:57.10776"
    PERFORMER "Внутренний Предиктор СССР"
    INDEX 01 56:57:08
  TRACK 216 AUDIO
    TITLE "00:57:10.09181"
    PERFORMER "Внутренний Предиктор СССР"
    INDEX 01 57:10:07
  TRACK 217 AUDIO
    TITLE "00:57:23.10467"
    PERFORMER "Внутренний Предиктор СССР"
    INDEX 01 57:23:08
  TRACK 218 AUDIO
    TITLE "00:57:36.27683"
    PERFORMER "Внутренний Предиктор СССР"
    INDEX 01 57:36:21
  TRACK 219 AUDIO
    TITLE "00:57:51.61630"
    PERFORMER "Внутренний Предиктор СССР"
    INDEX 01 57:51:46
  TRACK 220 AUDIO
    TITLE "00:58:05.03365"
    PERFORMER "Внутренний Предиктор СССР"
    INDEX 01 58:05:03
  TRACK 221 AUDIO
    TITLE "00:58:20.52454"
    PERFORMER "Внутренний Предиктор СССР"
    INDEX 01 58:20:39
  TRACK 222 AUDIO
    TITLE "00:58:34.14855"
    PERFORMER "Внутренний Предиктор СССР"
    INDEX 01 58:34:11
  TRACK 223 AUDIO
    TITLE "00:58:49.09748"
    PERFORMER "Внутренний Предиктор СССР"
    INDEX 01 58:49:07
  TRACK 224 AUDIO
    TITLE "00:59:07.96363"
    PERFORMER "Внутренний Предиктор СССР"
    INDEX 01 59:07:72
  TRACK 225 AUDIO
    TITLE "00:59:23.38902"
    PERFORMER "Внутренний Предиктор СССР"
    INDEX 01 59:23:29
  TRACK 226 AUDIO
    TITLE "00:59:40.71800"
    PERFORMER "Внутренний Предиктор СССР"
    INDEX 01 59:40:54
  TRACK 227 AUDIO
    TITLE "00:59:56.49125"
    PERFORMER "Внутренний Предиктор СССР"
    INDEX 01 59:56:37
  TRACK 228 AUDIO
    TITLE "01:00:10.62283"
    PERFORMER "Внутренний Предиктор СССР"
    INDEX 01 60:10:47
  TRACK 229 AUDIO
    TITLE "01:00:26.11420"
    PERFORMER "Внутренний Предиктор СССР"
    INDEX 01 60:26:09
  TRACK 230 AUDIO
    TITLE "01:00:40.60245"
    PERFORMER "Внутренний Предиктор СССР"
    INDEX 01 60:40:45
  TRACK 231 AUDIO
    TITLE "01:00:54.01746"
    PERFORMER "Внутренний Предиктор СССР"
    INDEX 01 60:54:01
  TRACK 232 AUDIO
    TITLE "01:01:17.23828"
    PERFORMER "Внутренний Предиктор СССР"
    INDEX 01 61:17:18
  TRACK 233 AUDIO
    TITLE "01:01:32.26338"
    PERFORMER "Внутренний Предиктор СССР"
    INDEX 01 61:32:20
  TRACK 234 AUDIO
    TITLE "01:01:49.50041"
    PERFORMER "Внутренний Предиктор СССР"
    INDEX 01 61:49:38
  TRACK 235 AUDIO
    TITLE "01:02:06.36313"
    PERFORMER "Внутренний Предиктор СССР"
    INDEX 01 62:06:27
  TRACK 236 AUDIO
    TITLE "01:02:23.06469"
    PERFORMER "Внутренний Предиктор СССР"
    INDEX 01 62:23:05
  TRACK 237 AUDIO
    TITLE "01:02:41.82914"
    PERFORMER "Внутренний Предиктор СССР"
    INDEX 01 62:41:62
  TRACK 238 AUDIO
    TITLE "01:03:02.78322"
    PERFORMER "Внутренний Предиктор СССР"
    INDEX 01 63:02:59
  TRACK 239 AUDIO
    TITLE "01:03:17.31977"
    PERFORMER "Внутренний Предиктор СССР"
    INDEX 01 63:17:24
  TRACK 240 AUDIO
    TITLE "01:03:33.51701"
    PERFORMER "Внутренний Предиктор СССР"
    INDEX 01 63:33:39
  TRACK 241 AUDIO
    TITLE "01:03:48.59134"
    PERFORMER "Внутренний Предиктор СССР"
    INDEX 01 63:48:44
  TRACK 242 AUDIO
    TITLE "01:04:04.65993"
    PERFORMER "Внутренний Предиктор СССР"
    INDEX 01 64:04:49
  TRACK 243 AUDIO
    TITLE "01:04:19.83596"
    PERFORMER "Внутренний Предиктор СССР"
    INDEX 01 64:19:63
  TRACK 244 AUDIO
    TITLE "01:04:41.01109"
    PERFORMER "Внутренний Предиктор СССР"
    INDEX 01 64:41:01
  TRACK 245 AUDIO
    TITLE "01:04:57.78744"
    PERFORMER "Внутренний Предиктор СССР"
    INDEX 01 64:57:59
  TRACK 246 AUDIO
    TITLE "01:05:16.87556"
    PERFORMER "Внутренний Предиктор СССР"
    INDEX 01 65:16:66
  TRACK 247 AUDIO
    TITLE "01:05:35.82993"
    PERFORMER "Внутренний Предиктор СССР"
    INDEX 01 65:35:62
  TRACK 248 AUDIO
    TITLE "01:05:59.54857"
    PERFORMER "Внутренний Предиктор СССР"
    INDEX 01 65:59:41
  TRACK 249 AUDIO
    TITLE "01:06:13.91238"
    PERFORMER "Внутренний Предиктор СССР"
    INDEX 01 66:13:68
  TRACK 250 AUDIO
    TITLE "01:06:29.18082"
    PERFORMER "Внутренний Предиктор СССР"
    INDEX 01 66:29:14
  TRACK 251 AUDIO
    TITLE "01:06:42.22014"
    PERFORMER "Внутренний Предиктор СССР"
    INDEX 01 66:42:17
  TRACK 252 AUDIO
    TITLE "01:07:01.09789"
    PERFORMER "Внутренний Предиктор СССР"
    INDEX 01 67:01:07
  TRACK 253 AUDIO
    TITLE "01:07:22.15134"
    PERFORMER "Внутренний Предиктор СССР"
    INDEX 01 67:22:11
  TRACK 254 AUDIO
    TITLE "01:07:41.69968"
    PERFORMER "Внутренний Предиктор СССР"
    INDEX 01 67:41:52
  TRACK 255 AUDIO
    TITLE "01:07:56.36395"
    PERFORMER "Внутренний Предиктор СССР"
    INDEX 01 67:56:27
  TRACK 256 AUDIO
    TITLE "01:08:10.69290"
    PERFORMER "Внутренний Предиктор СССР"
    INDEX 01 68:10:52
  TRACK 257 AUDIO
    TITLE "01:08:24.06336"
    PERFORMER "Внутренний Предиктор СССР"
    INDEX 01 68:24:05
  TRACK 258 AUDIO
    TITLE "01:08:41.74249"
    PERFORMER "Внутренний Предиктор СССР"
    INDEX 01 68:41:56
  TRACK 259 AUDIO
    TITLE "01:08:58.72132"
    PERFORMER "Внутренний Предиктор СССР"
    INDEX 01 68:58:54
  TRACK 260 AUDIO
    TITLE "01:09:13.36791"
    PERFORMER "Внутренний Предиктор СССР"
    INDEX 01 69:13:28
